New Features in threefive v2.4.71

# cli 
### sixfix
* ffmpeg changes SCTE-35 streams types to 0x6 bin data. sixfix will convert the bin data back to SCTE-35.
* The new file name is prefixed with 'fixed'.
* As with all threefive, this works with local, http(s), UDP , and Multicast sources.
---
* Input file is sixed.ts

```js
  a@fu:~/build/SCTE35_threefive$ ffprobe -hide_banner sixed.ts
[mpegts @ 0x55afc5641140] start time for stream 2 is not set in estimate_timings_from_pts
[mpegts @ 0x55afc5641140] start time for stream 3 is not set in estimate_timings_from_pts                                                                                                    
Input #0, mpegts, from 'sixed.ts':                                                                                                                                                           
  Duration: 00:04:56.30, start: 72668.995200, bitrate: 943 kb/s
  Program 1 
    Metadata:
      service_name    : Service01
      service_provider: FFmpeg
  Stream #0:0[0x100]: Video: h264 (Main) ([27][0][0][0] / 0x001B), yuv420p(tv, progressive), 640x360 [SAR 1:1 DAR 16:9], 29.97 fps, 29.97 tbr, 90k tbn
  Stream #0:1[0x101](und): Audio: aac (LC) ([15][0][0][0] / 0x000F), 48000 Hz, stereo, fltp, 64 kb/s
  Stream #0:2[0x102]: Data: bin_data ([6][0][0][0] / 0x0006) <------ Bin Data
  Stream #0:3[0x103]: Data: timed_id3 (ID3  / 0x20334449)
```
* Run sixfix
```js
a@fu:~/build/SCTE35_threefive$ ./threefive sixfix sixed.ts
```
* output file  is named fixed-sixed.ts
```js
a@fu:~/build/SCTE35_threefive$ ffprobe -hide_banner fixed-sixed.ts                                                                                                                           
[mpegts @ 0x5577b385b140] start time for stream 2 is not set in estimate_timings_from_pts
[mpegts @ 0x5577b385b140] start time for stream 3 is not set in estimate_timings_from_pts                                                                                                    
Input #0, mpegts, from 'fixed-sixed.ts':                                                                                                                                                     
  Duration: 00:04:53.66, start: 72668.995200, bitrate: 944 kb/s
  Program 1 
    Metadata:
      service_name    : Service01
      service_provider: FFmpeg
  Stream #0:0[0x100]: Video: h264 (Main) ([27][0][0][0] / 0x001B), yuv420p(tv, progressive), 640x360 [SAR 1:1 DAR 16:9], 29.97 fps, 29.97 tbr, 90k tbn
  Stream #0:1[0x101](und): Audio: aac (LC) ([15][0][0][0] / 0x000F), 48000 Hz, stereo, fltp, 64 kb/s
  Stream #0:2[0x102]: Data: scte_35       <------------ fixed
  Stream #0:3[0x103]: Data: timed_id3 (ID3  / 0x20334449)
```

### xml 
* the cli tool now supports generating valid SCTE-35 xml output.
* Input can be Base64, Hex or mpegts video.
```js
a@fu:~/build/SCTE35_threefive$ ./threefive xml   '/DBAAAGRZOeYAAAABQb+hJ8vqAAqAihDVUVJ/////3//AAAbX9ABFG1zbmJjX0VQMDQzMTEyMjEwNTU2EQEAbABeoQ==' 
```
```xml
<SpliceInfoSection xmlns="https://scte.org/schemas/35" ptsAdjustment="6734276504" protocolVersion="0" sapType="3" tier="0">
   <TimeSignal>
      <SpliceTime ptsTime="2225024936"/>
   </TimeSignal>
   <!-- Program End -->
   <SegmentationDescriptor segmentationEventId="4294967295" segmentationEventCancelIndicator="false" segmentationEventIdComplianceIndicator="true" segmentationTypeId="17" segmentNum="1" segmentsExpected="0" segmentationDuration="1794000">
      <!-- UPID: Deprecated -->
      <SegmentationUpid segmentationUpidType="1" segmentationUpidFormat="hexbinary">msnbc_EP043112210556</SegmentationUpid>
   </SegmentationDescriptor>
</SpliceInfoSection>
```
```js
a@fu:~/build/SCTE35_threefive$ ./threefive-exp xml fixed-sixed.ts
```
```xml
<SpliceInfoSection xmlns="https://scte.org/schemas/35" ptsAdjustment="207000" protocolVersion="0" sapType="3" tier="4095">
   <SpliceInsert spliceEventId="1" spliceEventCancelIndicator="false" spliceImmediateFlag="false" eventIdComplianceFlag="true" availNum="1" availsExpected="1" outOfNetworkIndicator="true" uniqueProgramId="39321">
      <Program>
         <SpliceTime ptsTime="6554297154"/>
      </Program>
      <BreakDuration autoReturn="true" duration="10798788"/>
   </SpliceInsert>
   <!-- Provider Placement Opportunity Start -->
   <SegmentationDescriptor segmentationEventId="0" segmentationEventCancelIndicator="false" segmentationEventIdComplianceIndicator="true" segmentationTypeId="52" segmentNum="0" segmentsExpected="0" subSegmentNum="0" subSegmentsExpected="0" segmentationDuration="10800000">
      <DeliveryRestrictions webDeliveryAllowedFlag="false" noRegionalBlackoutFlag="false" archiveAllowedFlag="false" deviceRestrictions="0"/>
      <!-- UPID: Deprecated -->
      <SegmentationUpid segmentationUpidType="1" segmentationUpidFormat="hexbinary">10100000</SegmentationUpid>
   </SegmentationDescriptor>
</SpliceInfoSection>
...

```

### Conversions
*  threefive can load JSON, XML, Base64 or Hex and encode to JSON,XML,Base64,Hex,Int or Bytes









